<svg width="16" height="16" viewBox="0 0 16 16" fill="none" xmlns="http://www.w3.org/2000/svg">
<g clip-path="url(#clip0)">
<path d="M10.606 8.08183L16 11.4918V4.52783L10.606 8.08183Z" fill="#D9D9D9"/>
<path d="M0 4.52783V11.4918L5.394 8.08183L0 4.52783Z" fill="#D9D9D9"/>
<path d="M15 2.5H0.999999C0.500999 2.5 0.104999 2.872 0.0299988 3.351L8 8.602L15.97 3.351C15.895 2.872 15.499 2.5 15 2.5Z" fill="#D9D9D9"/>
<path d="M9.69001 8.68606L8.27501 9.61806C8.19101 9.67306 8.09601 9.70006 8.00001 9.70006C7.90401 9.70006 7.80901 9.67306 7.72501 9.61806L6.31001 8.68506L0.0320129 12.6561C0.109013 13.1311 0.503013 13.5001 1.00001 13.5001H15C15.497 13.5001 15.891 13.1311 15.968 12.6561L9.69001 8.68606Z" fill="#D9D9D9"/>
</g>
<defs>
<clipPath id="clip0">
<rect width="16" height="16" fill="white"/>
</clipPath>
</defs>
</svg>
