<svg width="16" height="16" viewBox="0 0 16 16" fill="none" xmlns="http://www.w3.org/2000/svg">
<g clip-path="url(#clip0)">
<path d="M12.7368 2.73992C11.7658 1.06417 10.0411 0.0403906 8.1231 0.00126563C8.04122 -0.000421875 7.95882 -0.000421875 7.87691 0.00126563C5.95897 0.0403906 4.23422 1.06417 3.26316 2.73992C2.2706 4.4528 2.24344 6.5103 3.19051 8.24376L7.1581 15.5059C7.15988 15.5091 7.16166 15.5123 7.16351 15.5155C7.33807 15.8189 7.65079 16 8.00007 16C8.34932 16 8.66204 15.8189 8.83657 15.5155C8.83841 15.5123 8.84019 15.5091 8.84197 15.5059L12.8096 8.24376C13.7566 6.5103 13.7294 4.4528 12.7368 2.73992ZM8.00001 7.25002C6.75935 7.25002 5.75001 6.24067 5.75001 5.00002C5.75001 3.75936 6.75935 2.75002 8.00001 2.75002C9.24066 2.75002 10.25 3.75936 10.25 5.00002C10.25 6.24067 9.24069 7.25002 8.00001 7.25002Z" fill="#D9D9D9"/>
</g>
<defs>
<clipPath id="clip0">
<rect width="16" height="16" fill="white"/>
</clipPath>
</defs>
</svg>
